<?xml version="1.0" encoding="UTF-8"?><svg id="Logo_V4" xmlns="http://www.w3.org/2000/svg" viewBox="0 0 150 250"><path d="M21.815,125.227S116.744,37.648,90.77,10.752c-.628-.65-1.591-1.17-2.632-1.477-1.562-.461-3.216-.442-4.793-.062-2.773.668-5.205,2.388-7.268,4.299-4.048,3.752-7.075,8.573-9.709,13.352-2.051,3.721-3.92,7.544-5.528,11.476-6.807,16.643-11.642,34.011-15.777,51.482-2.109,8.91-4.017,17.867-5.786,26.851-1.047,5.316-2.319,10.615-3.133,15.972-.021.135-.042.271-.063.406-1.413,8.923,3.448,17.649,11.858,20.95h0c9.265,3.636,19.898-.387,24.143-9.389,1.097-2.327,2.096-4.692,3.04-7.047,4.378-10.926,6.36-21.277,9.219-30.15.292-.906.493-1.838.726-2.761.993-3.927,1.852-7.888,2.545-11.879l-36.172,148.296" fill="none" stroke="#000" stroke-linecap="round" stroke-linejoin="round" stroke-width="2"/><path d="M81.803,116.693s18.436-33.246,36.351-26.464c10.82,4.096,11.858,18.491,7.953,31.913-4.256,14.629-17.164,25.609-32.399,25.677-6.03.027-12.627-1.973-17.506-6.934" fill="none" stroke="#000" stroke-linecap="round" stroke-linejoin="round" stroke-width="2"/></svg>